<mxfile host="65bd71144e">
    <diagram id="DNOyHWe0UHtXfYtGZjZ2" name="Page-1">
        <mxGraphModel dx="1074" dy="789" grid="1" gridSize="10" guides="1" tooltips="1" connect="1" arrows="1" fold="1" page="1" pageScale="1" pageWidth="850" pageHeight="1100" math="0" shadow="0">
            <root>
                <mxCell id="0"/>
                <mxCell id="1" parent="0"/>
                <mxCell id="2" value="This program will calculate the volume of a sphere." style="text;html=1;align=center;verticalAlign=middle;resizable=0;points=[];autosize=1;strokeColor=none;fillColor=none;" vertex="1" parent="1">
                    <mxGeometry x="55" y="90" width="290" height="20" as="geometry"/>
                </mxCell>
                <mxCell id="3" value="Enter radius:&amp;nbsp;&lt;br&gt;&lt;br&gt;The volume is&amp;nbsp;" style="text;html=1;align=center;verticalAlign=middle;resizable=0;points=[];autosize=1;strokeColor=none;fillColor=none;" vertex="1" parent="1">
                    <mxGeometry x="55" y="120" width="90" height="50" as="geometry"/>
                </mxCell>
            </root>
        </mxGraphModel>
    </diagram>
</mxfile>